<?xml version="1.0" encoding="UTF-8"?>
<svg id="care" xmlns="http://www.w3.org/2000/svg" version="1.1" xmlns:xlink="http://www.w3.org/1999/xlink" viewBox="0 0 16 16">
  <!-- Generator: Adobe Illustrator 29.0.1, SVG Export Plug-In . SVG Version: 2.1.0 Build 192)  -->
  <defs>
    <style>
      .st0 {
        fill: url(#radial-gradient1);
      }

      .st0, .st1, .st2, .st3, .st4, .st5, .st6, .st7, .st8, .st9, .st10, .st11, .st12, .st13, .st14, .st15, .st16, .st17, .st18, .st19, .st20 {
        fill-rule: evenodd;
      }

      .st1 {
        fill: url(#radial-gradient8);
      }

      .st2 {
        fill: url(#radial-gradient13);
      }

      .st3 {
        fill: url(#radial-gradient3);
      }

      .st21 {
        mask: url(#mask);
      }

      .st4 {
        fill: url(#radial-gradient2);
      }

      .st5 {
        fill: #fff;
      }

      .st6 {
        fill: url(#radial-gradient5);
      }

      .st7 {
        fill: url(#radial-gradient6);
      }

      .st8 {
        fill: url(#radial-gradient15);
      }

      .st9 {
        fill: #4e506a;
      }

      .st10 {
        fill: url(#radial-gradient9);
      }

      .st11 {
        fill: url(#radial-gradient10);
      }

      .st12 {
        fill: url(#radial-gradient11);
      }

      .st13 {
        fill: url(#radial-gradient4);
      }

      .st14 {
        fill: url(#linear-gradient1);
      }

      .st15 {
        fill: url(#radial-gradient12);
      }

      .st16 {
        fill: url(#radial-gradient14);
      }

      .st17 {
        fill: url(#radial-gradient7);
      }

      .st18 {
        fill: url(#radial-gradient);
      }

      .st19 {
        fill: url(#linear-gradient);
      }

      .st22 {
        fill: url(#radial-gradient16);
      }

      .st20 {
        fill: url(#linear-gradient2);
      }
    </style>
    <linearGradient id="linear-gradient" x1="-40.8" y1="41.7" x2="-40.8" y2="40.8" gradientTransform="translate(660 -652) scale(16)" gradientUnits="userSpaceOnUse">
      <stop offset="0" stop-color="#f28a2d"/>
      <stop offset="1" stop-color="#fde86f"/>
    </linearGradient>
    <radialGradient id="radial-gradient" cx="-40.8" cy="41.2" fx="-40.8" fy="41.2" r=".5" gradientTransform="translate(660 -652) scale(16)" gradientUnits="userSpaceOnUse">
      <stop offset="0" stop-color="#f28a2d" stop-opacity="0"/>
      <stop offset="1" stop-color="#f08423" stop-opacity=".3"/>
    </radialGradient>
    <radialGradient id="radial-gradient1" cx="-40.3" cy="40.3" fx="-40.3" fy="40.3" r=".1" gradientTransform="translate(793.6 -183.4) rotate(24.1) scale(16 12.4)" gradientUnits="userSpaceOnUse">
      <stop offset="0" stop-color="#f28a2d" stop-opacity=".5"/>
      <stop offset="1" stop-color="#f28a2d" stop-opacity="0"/>
    </radialGradient>
    <radialGradient id="radial-gradient2" cx="-42.8" cy="49.4" fx="-42.8" fy="49.4" r=".3" gradientTransform="translate(371.9 -637.7) rotate(-38.2) scale(16 5.8)" gradientUnits="userSpaceOnUse">
      <stop offset="0" stop-color="#f28a2d" stop-opacity=".5"/>
      <stop offset="1" stop-color="#f28a2d" stop-opacity="0"/>
    </radialGradient>
    <radialGradient id="radial-gradient3" cx="-41.5" cy="54.2" fx="-41.5" fy="54.2" r=".1" gradientTransform="translate(626.8 -286.9) rotate(-10.4) scale(16 3.2)" gradientUnits="userSpaceOnUse">
      <stop offset="0" stop-color="#d45f00" stop-opacity=".2"/>
      <stop offset="1" stop-color="#f28a2d" stop-opacity="0"/>
    </radialGradient>
    <radialGradient id="radial-gradient4" cx="-40.1" cy="48.9" fx="-40.1" fy="48.9" r=".1" gradientTransform="translate(670.3 -22.1) rotate(11.5) scale(16 3.2)" gradientUnits="userSpaceOnUse">
      <stop offset="0" stop-color="#d45f00" stop-opacity=".2"/>
      <stop offset="1" stop-color="#d45f00" stop-opacity="0"/>
    </radialGradient>
    <linearGradient id="linear-gradient1" x1="-30.6" y1="84.5" x2="-30.6" y2="86.1" gradientTransform="translate(112.1 -73.9) scale(3.4 .9)" gradientUnits="userSpaceOnUse">
      <stop offset="0" stop-color="#482314"/>
      <stop offset="1" stop-color="#9a4111"/>
    </linearGradient>
    <radialGradient id="radial-gradient5" cx="-64.1" cy="59.3" fx="-64.1" fy="59.3" r=".9" gradientTransform="translate(-121.5 -132.5) rotate(-90) scale(2.1)" gradientUnits="userSpaceOnUse">
      <stop offset="0" stop-color="#3b446b"/>
      <stop offset=".7" stop-color="#202340"/>
    </radialGradient>
    <radialGradient id="radial-gradient6" cx="-64.1" cy="59.3" fx="-64.1" fy="59.3" r=".9" gradientTransform="translate(-115.5 -132.5) rotate(-90) scale(2.1)" gradientUnits="userSpaceOnUse">
      <stop offset="0" stop-color="#3b446b"/>
      <stop offset=".7" stop-color="#202340"/>
    </radialGradient>
    <radialGradient id="radial-gradient7" cx="-82.9" cy="43.4" fx="-82.9" fy="43.4" r=".3" gradientTransform="translate(-288.5 -39.3) rotate(-104.4) scale(1.4 6.3)" gradientUnits="userSpaceOnUse">
      <stop offset="0" stop-color="#e38200"/>
      <stop offset="1" stop-color="#cd6700"/>
    </radialGradient>
    <radialGradient id="radial-gradient8" cx="-69.1" cy="44.7" fx="-69.1" fy="44.7" r=".3" gradientTransform="translate(-325.5 -159.1) rotate(-79.1) scale(1.4 8.1)" gradientUnits="userSpaceOnUse">
      <stop offset="0" stop-color="#e38200"/>
      <stop offset="1" stop-color="#cd6700"/>
    </radialGradient>
    <linearGradient id="linear-gradient2" x1="-39" y1="43.2" x2="-39.2" y2="43.9" gradientTransform="translate(386.6 -382.1) scale(9.7 9.1)" gradientUnits="userSpaceOnUse">
      <stop offset="0" stop-color="#f34462"/>
      <stop offset="1" stop-color="#cc0820"/>
    </linearGradient>
    <radialGradient id="radial-gradient9" cx="-37" cy="41.3" fx="-37" fy="41.3" r=".3" gradientTransform="translate(454.6 -223.3) rotate(20.4) scale(9.1)" gradientUnits="userSpaceOnUse">
      <stop offset="0" stop-color="#ff7091" stop-opacity=".7"/>
      <stop offset="1" stop-color="#fe6d8e" stop-opacity="0"/>
    </radialGradient>
    <radialGradient id="radial-gradient10" cx="-37.5" cy="41.2" fx="-37.5" fy="41.2" r=".3" gradientTransform="translate(453.6 -221.9) rotate(20.4) scale(9.1)" gradientUnits="userSpaceOnUse">
      <stop offset="0" stop-color="#ff7091" stop-opacity=".7"/>
      <stop offset="1" stop-color="#fe6d8e" stop-opacity="0"/>
    </radialGradient>
    <radialGradient id="radial-gradient11" cx="-40" cy="34.4" fx="-40" fy="34.4" r=".2" gradientTransform="translate(351.9 453.9) rotate(101.6) scale(9.1 12.5)" gradientUnits="userSpaceOnUse">
      <stop offset="0" stop-color="#9c0600"/>
      <stop offset="1" stop-color="#9c0600" stop-opacity="0"/>
    </radialGradient>
    <radialGradient id="radial-gradient12" cx="-36.4" cy="39.9" fx="-36.4" fy="39.9" r=".2" gradientTransform="translate(527.2 -211.1) rotate(30.6) scale(9.1 11.4)" gradientUnits="userSpaceOnUse">
      <stop offset="0" stop-color="#9c0600" stop-opacity=".5"/>
      <stop offset="1" stop-color="#9c0600" stop-opacity="0"/>
    </radialGradient>
    <radialGradient id="radial-gradient13" cx="-41.1" cy="43.1" fx="-41.1" fy="43.1" r=".1" gradientTransform="translate(178.5 -592.4) rotate(-20.2) scale(9.1 11.7)" gradientUnits="userSpaceOnUse">
      <stop offset="0" stop-color="#9c0600" stop-opacity=".5"/>
      <stop offset="1" stop-color="#9c0600" stop-opacity="0"/>
    </radialGradient>
    <radialGradient id="radial-gradient14" cx="-36.5" cy="40" fx="-36.5" fy="40" r=".2" gradientTransform="translate(503.8 -125.9) rotate(34.1) scale(9.1 9.8)" gradientUnits="userSpaceOnUse">
      <stop offset="0" stop-color="#9c0600" stop-opacity="1"/>
      <stop offset="1" stop-color="#9c0600" stop-opacity="0"/>
    </radialGradient>
    <mask id="mask" x="-.2" y="0" width="16.2" height="16" maskUnits="userSpaceOnUse">
      <g id="u">
        <path class="st5" d="M16,8c0,4.4-3.6,8-8,8S0,12.4,0,8,3.6,0,8,0s8,3.6,8,8Z"/>
      </g>
    </mask>
    <radialGradient id="radial-gradient15" cx="-32.6" cy="39.7" fx="-32.6" fy="39.7" r="1.2" gradientTransform="translate(270.3 -60.4) rotate(36.5) scale(5.4)" gradientUnits="userSpaceOnUse">
      <stop offset="0" stop-color="#eda83a"/>
      <stop offset="1" stop-color="#ffdc5e"/>
    </radialGradient>
    <radialGradient id="radial-gradient16" cx="15.7" cy="10.3" fx="15.7" fy="10.3" r="8.8" gradientTransform="translate(0 18) scale(1 -1)" gradientUnits="userSpaceOnUse">
      <stop offset="0" stop-color="#eda83a"/>
      <stop offset="1" stop-color="#ffdc5e"/>
    </radialGradient>
  </defs>
  <path class="st19" d="M16,8c0,4.4-3.6,8-8,8S0,12.4,0,8,3.6,0,8,0s8,3.6,8,8Z"/>
  <path class="st18" d="M16,8c0,4.4-3.6,8-8,8S0,12.4,0,8,3.6,0,8,0s8,3.6,8,8Z"/>
  <path class="st0" d="M16,8c0,4.4-3.6,8-8,8S0,12.4,0,8,3.6,0,8,0s8,3.6,8,8Z"/>
  <path class="st4" d="M16,8c0,4.4-3.6,8-8,8S0,12.4,0,8,3.6,0,8,0s8,3.6,8,8Z"/>
  <path class="st3" d="M16,8c0,4.4-3.6,8-8,8S0,12.4,0,8,3.6,0,8,0s8,3.6,8,8Z"/>
  <path class="st13" d="M16,8c0,4.4-3.6,8-8,8S0,12.4,0,8,3.6,0,8,0s8,3.6,8,8Z"/>
  <path class="st14" d="M9.7,5.9c-.1-.3-3.3-.3-3.4,0s.6.7,1.7.7,1.8-.4,1.7-.7Z"/>
  <path class="st6" d="M6,4.1c0,.7-.4.9-1,1s-1.1-.2-1.1-1,.3-1.4,1.1-1.4,1,.8,1,1.4Z"/>
  <path class="st9" d="M4.9,3.1c0,0,0,.4,0,.5,0,0-.3.2-.4,0s0-.3,0-.5c.2,0,.4,0,.5,0Z"/>
  <path class="st7" d="M10,4.1c0,.7.4.9,1.1,1,.6,0,1.1-.2,1.1-1s-.3-1.4-1.1-1.4-1.1.8-1.1,1.4Z"/>
  <path class="st9" d="M11,3.1c.1,0,0,.3-.1.5-.1,0-.3,0-.4,0s0-.3.1-.5c.2-.2.3-.2.4,0Z"/>
  <path class="st17" d="M3.4,2.1c-.2.2,0,.5.3.4.6-.3,1.8-.6,2.8-.5.3,0,.4,0,.3-.4,0-.3-.4-.5-1.2-.4-1.2.1-2,.7-2.2.9Z"/>
  <path class="st1" d="M10.4,1.2c-.8-.1-1.2.1-1.2.4-.1.4,0,.4.3.4,1.1-.1,2.3.2,2.8.5.4.2.5-.2.3-.4s-1-.8-2.2-.9Z"/>
  <path class="st20" d="M9.7,8.5c-2.1-.6-2.8.8-2.8.8,0,0,.2-1.6-1.9-2.3-2-.6-3.2,1.3-3.3,2.4-.2,2.5,2,5.3,2.8,6.3,0,.3.4.3.7.3,1.2-.3,4.6-1.4,5.9-3.6.5-1.1.6-3.3-1.4-3.9Z"/>
  <path class="st10" d="M9.7,8.5c-2.1-.6-2.8.8-2.8.8,0,0,.2-1.6-1.9-2.3-2-.6-3.2,1.3-3.3,2.4-.2,2.5,2,5.3,2.8,6.3,0,.3.4.3.7.3,1.2-.3,4.6-1.4,5.9-3.6.5-1.1.6-3.3-1.4-3.9Z"/>
  <path class="st11" d="M9.7,8.5c-2.1-.6-2.8.8-2.8.8,0,0,.2-1.6-1.9-2.3-2-.6-3.2,1.3-3.3,2.4-.2,2.5,2,5.3,2.8,6.3,0,.3.4.3.7.3,1.2-.3,4.6-1.4,5.9-3.6.5-1.1.6-3.3-1.4-3.9Z"/>
  <path class="st12" d="M9.7,8.5c-2.1-.6-2.8.8-2.8.8,0,0,.2-1.6-1.9-2.3-2-.6-3.2,1.3-3.3,2.4-.2,2.5,2,5.3,2.8,6.3,0,.3.4.3.7.3,1.2-.3,4.6-1.4,5.9-3.6.5-1.1.6-3.3-1.4-3.9Z"/>
  <path class="st15" d="M9.7,8.5c-2.1-.6-2.8.8-2.8.8,0,0,.2-1.6-1.9-2.3-2-.6-3.2,1.3-3.3,2.4-.2,2.5,2,5.3,2.8,6.3,0,.3.4.3.7.3,1.2-.3,4.6-1.4,5.9-3.6.5-1.1.6-3.3-1.4-3.9Z"/>
  <path class="st2" d="M9.7,8.5c-2.1-.6-2.8.8-2.8.8,0,0,.2-1.6-1.9-2.3-2-.6-3.2,1.3-3.3,2.4-.2,2.5,2,5.3,2.8,6.3,0,.3.4.3.7.3,1.2-.3,4.6-1.4,5.9-3.6.5-1.1.6-3.3-1.4-3.9Z"/>
  <path class="st16" d="M9.7,8.5c-2.1-.6-2.8.8-2.8.8,0,0,.2-1.6-1.9-2.3-2-.6-3.2,1.3-3.3,2.4-.2,2.5,2,5.3,2.8,6.3,0,.3.4.3.7.3,1.2-.3,4.6-1.4,5.9-3.6.5-1.1.6-3.3-1.4-3.9Z"/>
  <g class="st21">
    <path class="st8" d="M1.3,7.7c-.5-.5-1.4-.8-1.5.4,0,.9.3,2.5,1.4,3.4,2.8,2.2,5.3,1,5.4-.6,0-1.2-1.4-1.1-1.8-1.1h0c0-.2.3-.3.4-.4.4-.3.2-.8-.3-.7,0,0-1.3.4-2.1.1-.8-.3-.9-.6-1.5-1.1Z"/>
  </g>
  <path class="st22" d="M14.3,7.8c.3-.6.8-.4,1.1-.3.4,0,.7.4.7,1,0,1.5-.2,2.9-1.5,4.3-2.3,2.6-6.2,2.2-6.6.6-.3-1.2,1.1-1.4,1.6-1.4h0c-.2-.2-.3-.3-.5-.4-.4-.3-.3-.9.2-.8.6.1,1.4.3,2,.2,1.9-.2,2.2-1.7,3-3.2Z"/>
</svg>