<?xml version="1.0" encoding="UTF-8"?>
<svg id="Layer_1" xmlns="http://www.w3.org/2000/svg" version="1.1" viewBox="0 0 100 100">
  <!-- Generator: Adobe Illustrator 29.0.1, SVG Export Plug-In . SVG Version: 2.1.0 Build 192)  -->
  <defs>
    <style>
      .st0 {
        fill: #fff;
      }

      .st1 {
        fill: #ed3a58;
      }

      .st2 {
        fill: #525457;
      }
    </style>
  </defs>
  <rect class="st0" x="7.3" y="7.3" width="85.4" height="85.4" rx="15" ry="15"/>
  <path class="st1" d="M22.3,7.3h55.4c8.3,0,15,6.7,15,15v10.4H7.3v-10.4c0-8.3,6.7-15,15-15Z"/>
  <rect class="st0" x="31.4" y="18.3" width="37.3" height="3.3" rx="1.7" ry="1.7"/>
  <path class="st2" d="M53.2,44.1l3.3,10.1h10.7c3.3,0,4.7,4.2,2,6.2l-8.6,6.3,3.3,10.1c1,3.1-2.6,5.8-5.3,3.8l-8.6-6.3-8.6,6.3c-2.7,1.9-6.3-.7-5.3-3.8l3.3-10.1-8.6-6.3c-2.7-1.9-1.3-6.2,2-6.2h10.7s3.3-10.1,3.3-10.1c1-3.1,5.5-3.1,6.5,0Z"/>
</svg>