<?xml version="1.0" encoding="UTF-8"?>
<svg id="Layer_1" xmlns="http://www.w3.org/2000/svg" version="1.1" xmlns:xlink="http://www.w3.org/1999/xlink" viewBox="0 0 100 100">
  <!-- Generator: Adobe Illustrator 29.0.1, SVG Export Plug-In . SVG Version: 2.1.0 Build 192)  -->
  <defs>
    <style>
      .st0 {
        fill: url(#linear-gradient2);
      }

      .st1 {
        fill: url(#linear-gradient1);
      }

      .st2 {
        fill: url(#linear-gradient3);
      }

      .st3 {
        fill: url(#linear-gradient);
      }
    </style>
    <linearGradient id="linear-gradient" x1="68.4" y1="46.1" x2="68.4" y2="25.6" gradientUnits="userSpaceOnUse">
      <stop offset="0" stop-color="#48dac8"/>
      <stop offset="1" stop-color="#9cf8eb"/>
    </linearGradient>
    <linearGradient id="linear-gradient1" y1="73.5" y2="49.3" xlink:href="#linear-gradient"/>
    <linearGradient id="linear-gradient2" x1="38.5" y1="45.5" x2="38.5" y2="18.8" gradientUnits="userSpaceOnUse">
      <stop offset="0" stop-color="#26b8ff"/>
      <stop offset="1" stop-color="#1b83ff"/>
    </linearGradient>
    <linearGradient id="linear-gradient3" x1="38.5" y1="81.2" x2="38.5" y2="49.6" gradientUnits="userSpaceOnUse">
      <stop offset="0" stop-color="#1b83ff"/>
      <stop offset="1" stop-color="#26b8ff"/>
    </linearGradient>
  </defs>
  <g>
    <circle class="st3" cx="68.4" cy="35.9" r="10.2"/>
    <path class="st1" d="M64.2,49.3h8.5c10.3,0,18.7,8.4,18.7,18.7h0c0,3.1-2.5,5.5-5.5,5.5h-34.9c-3.1,0-5.5-2.5-5.5-5.5h0c0-10.3,8.4-18.7,18.7-18.7Z"/>
  </g>
  <g>
    <circle class="st0" cx="38.5" cy="32.1" r="13.3"/>
    <path class="st2" d="M33,49.6h11.1c13.5,0,24.4,10.9,24.4,24.4h0c0,4-3.2,7.2-7.2,7.2H15.8c-4,0-7.2-3.2-7.2-7.2h0c0-13.5,10.9-24.4,24.4-24.4Z"/>
  </g>
</svg>