<?xml version="1.0" encoding="UTF-8"?>
<svg id="Layer_1" xmlns="http://www.w3.org/2000/svg" version="1.1" xmlns:xlink="http://www.w3.org/1999/xlink" viewBox="0 0 100 100">
  <!-- Generator: Adobe Illustrator 29.0.1, SVG Export Plug-In . SVG Version: 2.1.0 Build 192)  -->
  <defs>
    <style>
      .st0 {
        fill: #ffbd1d;
      }

      .st1 {
        fill: #65d7cb;
      }

      .st2 {
        fill: #fff;
      }

      .st3 {
        fill: url(#linear-gradient);
      }
    </style>
    <linearGradient id="linear-gradient" x1="66.5" y1="78.5" x2="33.5" y2="21.5" gradientUnits="userSpaceOnUse">
      <stop offset=".1" stop-color="#1877f2"/>
      <stop offset="1" stop-color="#1fe5f9"/>
    </linearGradient>
  </defs>
  <rect class="st3" x="6.5" y="27.6" width="87" height="44.8" rx="22.4" ry="22.4"/>
  <path class="st2" d="M41.7,47.1h-6.2c-.8,0-1.5-.7-1.5-1.5v-6.2c0-.8-.7-1.5-1.5-1.5h-2.9c-.8,0-1.5.7-1.5,1.5v6.2c0,.8-.7,1.5-1.5,1.5h-6.2c-.8,0-1.5.7-1.5,1.5v2.9c0,.8.7,1.5,1.5,1.5h6.2c.8,0,1.5.7,1.5,1.5v6.2c0,.8.7,1.5,1.5,1.5h2.9c.8,0,1.5-.7,1.5-1.5v-6.2c0-.8.7-1.5,1.5-1.5h6.2c.8,0,1.5-.7,1.5-1.5v-2.9c0-.8-.7-1.5-1.5-1.5Z"/>
  <circle class="st1" cx="75.4" cy="44.1" r="6.3"/>
  <circle class="st0" cx="62.9" cy="56.3" r="6.3"/>
</svg>