<?xml version="1.0" encoding="UTF-8"?>
<svg id="Layer_1" xmlns="http://www.w3.org/2000/svg" version="1.1" xmlns:xlink="http://www.w3.org/1999/xlink" viewBox="0 0 100 100">
  <!-- Generator: Adobe Illustrator 29.0.1, SVG Export Plug-In . SVG Version: 2.1.0 Build 192)  -->
  <defs>
    <style>
      .st0 {
        fill: #fff;
      }

      .st1 {
        fill: url(#linear-gradient);
      }
    </style>
    <linearGradient id="linear-gradient" x1="80.3" y1="80.3" x2="19.7" y2="19.7" gradientUnits="userSpaceOnUse">
      <stop offset="0" stop-color="#197cf3"/>
      <stop offset="1" stop-color="#27beff"/>
    </linearGradient>
  </defs>
  <circle class="st1" cx="50" cy="50" r="42.8"/>
  <g>
    <g>
      <circle class="st0" cx="70.8" cy="43.2" r="5.3"/>
      <path class="st0" d="M81.1,60.7c0,.8-.5,1.5-1,1.9-.6.5-1.3.7-2.1.6l-6.7-.6c-.6-5.1-3.4-9.5-7.5-12.3,1.3-.5,2.7-.7,4.1-.5l4.4.4c5.3.5,9.2,5.2,8.7,10.4Z"/>
    </g>
    <g>
      <circle class="st0" cx="28.4" cy="43.2" r="5.3"/>
      <path class="st0" d="M35.5,50.6c-1.2.9-2.4,1.9-3.4,3-2.1,2.5-3.6,5.6-4,9l-7.2.6c-1.6.1-2.9-1.1-3-2.6-.2-2.6.7-5.1,2.3-7,1.6-1.9,3.9-3.1,6.6-3.4l4.4-.3c1.5-.1,3,.1,4.4.7Z"/>
    </g>
    <g>
      <circle class="st0" cx="49.9" cy="38.9" r="8.3"/>
      <path class="st0" d="M46.5,49.8h6.9c8.4,0,15.2,6.8,15.2,15.2h0c0,2.5-2,4.5-4.5,4.5h-28.3c-2.5,0-4.5-2-4.5-4.5h0c0-8.4,6.8-15.2,15.2-15.2Z"/>
    </g>
  </g>
</svg>