<?xml version="1.0" encoding="UTF-8"?>
<svg id="Layer_1" xmlns="http://www.w3.org/2000/svg" version="1.1" xmlns:xlink="http://www.w3.org/1999/xlink" viewBox="0 0 100 100">
  <!-- Generator: Adobe Illustrator 29.0.1, SVG Export Plug-In . SVG Version: 2.1.0 Build 192)  -->
  <defs>
    <style>
      .st0 {
        fill: #fff;
      }

      .st1 {
        fill: url(#linear-gradient);
      }
    </style>
    <linearGradient id="linear-gradient" x1="7.3" y1="50" x2="92.7" y2="50" gradientUnits="userSpaceOnUse">
      <stop offset="0" stop-color="#ff5f7c"/>
      <stop offset="1" stop-color="#fe266e"/>
    </linearGradient>
  </defs>
  <image width="548" height="339" transform="translate(98 -6.8) scale(.2)" xlink:href="Layer 11.png"/>
  <g>
    <rect class="st1" x="7.3" y="32.3" width="85.4" height="35.4" rx="8.1" ry="8.1"/>
    <g>
      <polygon class="st0" points="28.1 43.6 24.7 43.6 24.7 56.4 32.2 56.4 32.2 53.4 28.1 53.4 28.1 43.6"/>
      <rect class="st0" x="38.7" y="43.6" width="3.4" height="12.8"/>
      <polygon class="st0" points="54.8 53.4 54.1 53.4 52.3 43.6 48.8 43.6 51.5 56.4 57.4 56.4 60.1 43.6 56.5 43.6 54.8 53.4"/>
      <polygon class="st0" points="75.3 46.6 75.3 43.6 66.7 43.6 66.7 56.4 75.3 56.4 75.3 53.4 70.1 53.4 70.1 51.4 74.1 51.4 74.1 48.6 70.1 48.6 70.1 46.6 75.3 46.6"/>
    </g>
  </g>
</svg>