<?xml version="1.0" encoding="UTF-8"?>
<svg id="Layer_1" xmlns="http://www.w3.org/2000/svg" version="1.1" xmlns:xlink="http://www.w3.org/1999/xlink" viewBox="0 0 100 100">
  <!-- Generator: Adobe Illustrator 29.0.1, SVG Export Plug-In . SVG Version: 2.1.0 Build 192)  -->
  <defs>
    <style>
      .st0 {
        fill: none;
        stroke: url(#linear-gradient);
        stroke-miterlimit: 10;
        stroke-width: 8.1px;
      }
    </style>
    <linearGradient id="linear-gradient" x1="79" y1="80.3" x2="22.9" y2="24.3" gradientUnits="userSpaceOnUse">
      <stop offset="0" stop-color="#015af2"/>
      <stop offset="1" stop-color="#00cbf2"/>
    </linearGradient>
  </defs>
  <path class="st0" d="M59.3,32.9c7-5.4,12.1-6.8,16.6-5.9,4.4.8,8.2,4,10.6,7.8,3.3,5.2,4.1,10.1,4.3,12.8.1,1.7,1.2,18.3-7.9,22.2-7.3,3.2-16.4-4-17.9-5.2-4-3.1-6.4-7.3-11.5-15.6-2.3-3.7-4.3-7.5-6.9-10.9-2.6-3.4-5.9-6.5-9.8-8.1-13.4-5.6-25,9.7-27.1,21.4-1,5.4-.4,11.2,2.6,15.7,2.6,4,8.7,6.9,14.1,6.1,12.7-1.9,11.8-23.9,33.1-40.3Z"/>
</svg>