<?xml version="1.0" encoding="UTF-8"?>
<svg id="Layer_1" xmlns="http://www.w3.org/2000/svg" version="1.1" xmlns:xlink="http://www.w3.org/1999/xlink" viewBox="0 0 100 100">
  <!-- Generator: Adobe Illustrator 29.0.1, SVG Export Plug-In . SVG Version: 2.1.0 Build 192)  -->
  <defs>
    <style>
      .st0 {
        fill: url(#linear-gradient2);
      }

      .st1 {
        fill: url(#linear-gradient1);
      }

      .st2 {
        fill: url(#linear-gradient);
      }
    </style>
    <linearGradient id="linear-gradient" x1="38.7" y1="70" x2="-1.3" y2="30" gradientUnits="userSpaceOnUse">
      <stop offset="0" stop-color="#1888ff"/>
      <stop offset="1" stop-color="#29c6ff"/>
    </linearGradient>
    <linearGradient id="linear-gradient1" x1="56.1" y1="51.5" x2="23.4" y2="18.8" gradientUnits="userSpaceOnUse">
      <stop offset="0" stop-color="#f89c2e"/>
      <stop offset="1" stop-color="#f84e2c"/>
    </linearGradient>
    <linearGradient id="linear-gradient2" x1="53.6" y1="-5.2" x2="17.1" y2="-41.8" gradientTransform="translate(102.1 24.5) rotate(-180)" gradientUnits="userSpaceOnUse">
      <stop offset="0" stop-color="#f84e2c"/>
      <stop offset="1" stop-color="#f89c2e"/>
    </linearGradient>
  </defs>
  <rect class="st2" x="15.3" y="11.4" width="6.8" height="77.3" rx="3.4" ry="3.4"/>
  <path class="st1" d="M45.4,61.1h-16c-1.5,0-2.7-1.2-2.7-2.7V16.6c0-1.5,1.2-2.7,2.7-2.7h25.3c1.7,0,3,1.6,2.6,3.2l-9.4,41.8c-.3,1.2-1.4,2.1-2.6,2.1Z"/>
  <path class="st0" d="M58.3,21.2h23.4c1.7,0,3.1,1.4,3.1,3.1v41c0,1.7-1.4,3.1-3.1,3.1h-36.1c-2.1,0-3.6-2-2.9-4l12.7-41c.4-1.3,1.6-2.2,2.9-2.2Z"/>
</svg>