<?xml version="1.0" encoding="UTF-8"?>
<svg id="Layer_1" xmlns="http://www.w3.org/2000/svg" version="1.1" xmlns:xlink="http://www.w3.org/1999/xlink" viewBox="0 0 100 100">
  <!-- Generator: Adobe Illustrator 29.0.1, SVG Export Plug-In . SVG Version: 2.1.0 Build 192)  -->
  <defs>
    <style>
      .st0 {
        fill: #fff;
      }

      .st1 {
        fill: #1881fa;
      }

      .st2 {
        fill: url(#linear-gradient);
      }
    </style>
    <linearGradient id="linear-gradient" x1="79.8" y1="74.7" x2="20.2" y2="15.1" gradientUnits="userSpaceOnUse">
      <stop offset="0" stop-color="#1838fa"/>
      <stop offset="1" stop-color="#3fcbcf"/>
    </linearGradient>
  </defs>
  <rect class="st2" x="9" y="19.9" width="82" height="50" rx="11" ry="11"/>
  <rect class="st1" x="30.2" y="75.8" width="39.5" height="4.3" rx="2.2" ry="2.2"/>
  <path class="st0" d="M60,42.8l-17.7-10.1c-1.6-.9-3.6.2-3.6,2.1v20.4c0,1.9,2.1,3,3.7,2.1l17.6-10.2c1.6-.9,1.6-3.3,0-4.2l-17.7-10.1c-1.6-.9-3.6.2-3.6,2.1v20.4c0,1.9,2.1,3,3.7,2.1l17.6-10.2c1.6-.9,1.6-3.3,0-4.2Z"/>
</svg>